# xmcd
#
# Track frame offsets: 
#        180
#        12924
#        25658
#        38143
#        50287
#        64687
#        78162
#        89668
#        99710
#        111243
#        125690
#        138142
#        151088
#        164674
#        177001
#        189980
#
# Disc length: 2704 seconds
#
# Revision: 0
# Processed by: cddbd v1.5.2PL0 Copyright (c) Steve Scherf et al.
# Submitted via: ExactAudioCopy v0.95a4
#
DISCID=c60a8e10
DTITLE=Various Artist - Blues Bandits
DYEAR=2005
DGENRE=Blues
TTITLE0=01 B. B. King: Walkin' and Cryin' 1950
TTITLE1=02 Big Bill Broonzy: You do me any Old Way 1937
TTITLE2=03 Lonnie Johnson: Love is the Answer 1947
TTITLE3=04 T-Bone Walker: Too much trouble Blues 1949
TTITLE4=05 Big Joe Williams: Break 'em on Down 1941
TTITLE5=06 Dr. Clayton: Peral Harbour Blues 1942
TTITLE6=07 Brownie McGhee: Dealing with the Devil 1941
TTITLE7=08 John Lee Hooker: Hey Boogie 1950
TTITLE8=09 B. B. King: Take a Swing with Me 1949
TTITLE9=10 Leadbelly: Easy Rider 1940
TTITLE10=11 Champion Jack Dupree: Junker Blues 1950
TTITLE11=12 Big Boy Crudup: Hey, Mama Everything's All Right 1947
TTITLE12=13 Muddy Waters: I want You to Love Me 1959
TTITLE13=14 Big Joe Turner: The Cill is on 1951
TTITLE14=15 Big Bill Broonzy: Jivin' Mr. Fuller Blues 1940
TTITLE15=16 Kokomo Arnold: Fool Man Blues 1937
EXTD=
EXTT0=
EXTT1=
EXTT2=
EXTT3=
EXTT4=
EXTT5=
EXTT6=
EXTT7=
EXTT8=
EXTT9=
EXTT10=
EXTT11=
EXTT12=
EXTT13=
EXTT14=
EXTT15=
PLAYORDER=
